<svg id="Layer_1" xmlns="http://www.w3.org/2000/svg" viewBox="0 0 360 360"><style>.st1{fill:#dcaa27}</style><circle class="st1" cx="244.1" cy="152.6" r="25"/><path d="M180 247.6c-37.2 0-67.6-30.3-67.6-67.6 0-37.2 30.3-67.6 67.6-67.6s67.6 30.3 67.6 67.6c0 37.2-30.4 67.6-67.6 67.6zm0-127.2c-32.8 0-59.6 26.7-59.6 59.6 0 32.8 26.7 59.6 59.6 59.6s59.6-26.7 59.6-59.6c0-32.8-26.8-59.6-59.6-59.6z" fill="#111422"/><circle class="st1" cx="224.5" cy="86.3" r="17.2"/><circle class="st1" cx="89" cy="117" r="17.2"/><circle class="st1" cx="259" cy="250" r="17.2"/><path d="M270.5 204c0-2.5 2-4.5 4.5-4.5s4.5 2 4.5 4.5-2 4.5-4.5 4.5-4.5-2-4.5-4.5zm-100 83.7c0-2.5 2-4.5 4.5-4.5s4.5 2 4.5 4.5-2 4.5-4.5 4.5-4.5-2-4.5-4.5zm-43.6-186.5c0-2.5 2-4.5 4.5-4.5s4.5 2 4.5 4.5-2 4.5-4.5 4.5-4.5-2.1-4.5-4.5zm55.4 100.5c0-2.5 2-4.5 4.5-4.5s4.5 2 4.5 4.5-2 4.5-4.5 4.5c-2.4 0-4.5-2-4.5-4.5z" fill="#efd7a3"/><circle class="st1" cx="155.1" cy="160.6" r="10.3"/><circle class="st1" cx="115.7" cy="225.7" r="45.4"/></svg>