<svg id="Layer_1" xmlns="http://www.w3.org/2000/svg" viewBox="0 0 360 360"><style>.st1{fill:#dcaa27}</style><path class="st1" d="M187.9 172.1s-3.5-50.6 20.2-74.3c14.9-14.9 39.2-14.9 54.1 0 14.9 14.9 14.9 39.2 0 54.1-22.6 22.6-74.3 20.2-74.3 20.2zm-15.8 15.8s3.5 50.6-20.2 74.3c-14.9 14.9-39.2 14.9-54.1 0-14.9-14.9-14.9-39.2 0-54.1 22.6-22.6 74.3-20.2 74.3-20.2z"/><path d="M181.2 244.8c-16.3 0-32.6-6.2-45-18.6-24.8-24.8-24.8-65.2 0-90 24.8-24.8 65.2-24.8 90 0 24.8 24.8 24.8 65.2 0 90-12.5 12.4-28.8 18.6-45 18.6zm0-119.3c-14.3 0-28.5 5.4-39.3 16.3-21.7 21.7-21.7 57 0 78.7 21.7 21.7 57 21.7 78.7 0 21.7-21.7 21.7-57 0-78.7-11-10.8-25.2-16.3-39.4-16.3z" fill="#111422"/><path class="st1" d="M172.1 172.1s-50.6 3.5-74.3-20.2c-14.9-14.9-14.9-39.2 0-54.1s39.2-14.9 54.1 0c22.6 22.6 20.2 74.3 20.2 74.3zm15.8 15.8s50.6-3.5 74.3 20.2c14.9 14.9 14.9 39.2 0 54.1-14.9 14.9-39.2 14.9-54.1 0-22.6-22.6-20.2-74.3-20.2-74.3z"/><path d="M175.2 88.6c-.1-2.6 1.9-4.9 4.6-5 2.6-.1 4.9 1.9 5 4.5.1 2.6-1.9 4.9-4.6 5h-.2c-2.5.1-4.7-1.9-4.8-4.5zm0 183.2c-.1-2.6 1.9-4.9 4.6-5 2.6-.1 4.9 1.9 5 4.5.1 2.6-1.9 4.9-4.6 5h-.2c-2.5.1-4.7-1.9-4.8-4.5zm96.2-96.6c2.6-.1 4.9 1.9 5 4.6.1 2.6-1.9 4.9-4.5 5-2.6.1-4.9-1.9-5-4.6v-.2c-.1-2.5 1.9-4.7 4.5-4.8zm-183.2 0c2.6-.1 4.9 1.9 5 4.6.1 2.6-1.9 4.9-4.5 5-2.6.1-4.9-1.9-5-4.6v-.2c-.1-2.5 1.9-4.7 4.5-4.8z" fill="#efd7a3"/></svg>