<svg id="Layer_1" xmlns="http://www.w3.org/2000/svg" viewBox="0 0 360 360"><style>.st1{fill:#dcaa27}.st2{fill:#111422}</style><path class="st2" d="M180 259.1c-43.6 0-79.1-35.5-79.1-79.1s35.5-79.1 79.1-79.1c43.6 0 79.1 35.5 79.1 79.1s-35.5 79.1-79.1 79.1zm0-150.2c-39.2 0-71.1 31.9-71.1 71.1s31.9 71.1 71.1 71.1 71.1-31.9 71.1-71.1-31.9-71.1-71.1-71.1z"/><ellipse class="st1" cx="180" cy="107.2" rx="15.3" ry="42.5"/><ellipse class="st1" cx="180" cy="252.8" rx="15.3" ry="42.5"/><ellipse class="st1" cx="252.8" cy="180" rx="42.5" ry="15.3"/><ellipse class="st1" cx="107.2" cy="180" rx="42.5" ry="15.3"/><ellipse transform="rotate(-45.001 231.495 128.508)" class="st1" cx="231.5" cy="128.5" rx="42.5" ry="15.3"/><ellipse transform="rotate(-45.001 128.503 231.498)" class="st1" cx="128.5" cy="231.5" rx="42.5" ry="15.3"/><ellipse transform="rotate(-45.001 231.494 231.5)" class="st1" cx="231.5" cy="231.5" rx="15.3" ry="42.5"/><ellipse transform="rotate(-45.001 128.504 128.507)" class="st1" cx="128.5" cy="128.5" rx="15.3" ry="42.5"/><ellipse transform="rotate(-45.001 179.999 180.003)" class="st2" cx="180" cy="180" rx="21" ry="21"/><path d="M175.5 51.6c-.1-2.5 1.8-4.6 4.3-4.7 2.5-.1 4.6 1.8 4.7 4.3.1 2.5-1.8 4.6-4.3 4.7h-.2c-2.4 0-4.4-1.9-4.5-4.3zm0 257.2c-.1-2.5 1.8-4.6 4.3-4.7 2.5-.1 4.6 1.8 4.7 4.3.1 2.5-1.8 4.6-4.3 4.7h-.2c-2.4 0-4.4-1.8-4.5-4.3zm132.9-133.3c2.5-.1 4.6 1.8 4.7 4.3.1 2.5-1.8 4.6-4.3 4.7-2.5.1-4.6-1.8-4.7-4.3v-.2c0-2.4 1.9-4.4 4.3-4.5zm-257.2 0c2.5-.1 4.6 1.8 4.7 4.3.1 2.5-1.8 4.6-4.3 4.7-2.5.1-4.6-1.8-4.7-4.3v-.2c0-2.4 1.8-4.4 4.3-4.5zM267.6 86c1.7-1.8 4.5-2 6.4-.3 1.8 1.7 2 4.5.3 6.3-1.7 1.8-4.5 2-6.4.3l-.1-.1c-1.7-1.7-1.8-4.4-.2-6.2zM85.7 267.9c1.7-1.8 4.5-2 6.4-.3 1.8 1.7 2 4.5.3 6.3-1.7 1.8-4.5 2-6.4.3l-.1-.1c-1.7-1.6-1.8-4.4-.2-6.2zm188.3-.3c1.8 1.7 2 4.5.3 6.4-1.7 1.8-4.5 2-6.3.3-1.8-1.7-2-4.5-.3-6.4l.1-.1c1.7-1.7 4.4-1.8 6.2-.2zM92.1 85.7c1.8 1.7 2 4.5.3 6.4-1.7 1.8-4.5 2-6.3.3-1.8-1.7-2-4.5-.3-6.4l.1-.1c1.6-1.7 4.4-1.8 6.2-.2z" fill="#efd7a3"/></svg>