<svg xmlns="http://www.w3.org/2000/svg" viewBox="0 0 360 360"><path d="M163.2 313.1c-2.5-.3-4.2-2.5-3.9-5 .3-2.5 2.5-4.2 5-3.9 2.5.3 4.2 2.5 3.9 5-.3 2.3-2.2 3.9-4.5 3.9h-.5zm50.6-7.8c-.7-2.4.6-4.9 3-5.6 2.4-.7 4.9.6 5.6 3 .7 2.4-.6 4.9-3 5.6-.4.1-.9.2-1.3.2-1.9-.1-3.7-1.3-4.3-3.2zm-103.9-10.9c-2.1-1.3-2.8-4.1-1.5-6.2 1.3-2.1 4.1-2.8 6.2-1.5 2.1 1.3 2.8 4.1 1.5 6.2-.8 1.4-2.3 2.2-3.8 2.2-.9-.1-1.7-.3-2.4-.7zm152.4-14.2c-1.6-1.9-1.5-4.7.4-6.3 1.9-1.7 4.7-1.5 6.3.4 1.7 1.9 1.5 4.7-.4 6.4-.9.8-1.9 1.1-3 1.1-1.1-.1-2.4-.6-3.3-1.6zM69 255.4c-1.4-2-.9-4.8 1.2-6.2 2.1-1.4 4.8-.9 6.2 1.2 1.4 2 .9 4.8-1.2 6.2-.8.5-1.7.8-2.5.8-1.4 0-2.8-.7-3.7-2zm227.3-17.9c-2.3-1-3.3-3.7-2.2-6 1-2.3 3.7-3.3 6-2.2 2.3 1 3.3 3.7 2.2 6-.8 1.7-2.4 2.6-4.1 2.6-.6 0-1.3-.2-1.9-.4zM47.8 203c-.4-2.5 1.2-4.8 3.7-5.2 2.4-.4 4.8 1.2 5.2 3.7.4 2.5-1.2 4.8-3.7 5.2-.3 0-.5.1-.8.1-2.1 0-4-1.6-4.4-3.8zm257.3-23c0-2.5 2-4.5 4.5-4.5s4.5 2 4.5 4.5-2 4.5-4.5 4.5-4.5-2-4.5-4.5zM53.3 152.1c-2.4-.6-3.8-3.1-3.2-5.5.6-2.4 3.1-3.9 5.5-3.2 2.4.6 3.9 3.1 3.2 5.5-.5 2-2.4 3.4-4.4 3.4-.3-.1-.7-.1-1.1-.2zm244.5-14.5c-.8-2.3.4-4.9 2.7-5.8 2.3-.8 4.9.4 5.8 2.7.8 2.3-.4 4.9-2.7 5.8-.5.2-1 .3-1.5.3-1.9 0-3.7-1.1-4.3-3zM76 102.4c-1.9-1.5-2.2-4.4-.7-6.3 1.6-1.9 4.4-2.2 6.3-.7 1.9 1.6 2.2 4.4.7 6.3-.9 1.1-2.2 1.7-3.5 1.7-1 0-1.9-.3-2.8-1zm193.9-9.5c-1.7-1.8-1.7-4.6.1-6.4 1.8-1.7 4.6-1.7 6.4.1 1.7 1.8 1.7 4.6-.1 6.4-.9.9-2 1.3-3.1 1.3-1.3 0-2.4-.5-3.3-1.4zM117.1 66.5c-1.1-2.2-.2-4.9 2-6.1 2.2-1.1 4.9-.2 6 2 1.1 2.2.2 4.9-2 6.1-.7.3-1.4.5-2 .5-1.6 0-3.2-.9-4-2.5zm109-2.9c-2.3-.9-3.4-3.5-2.5-5.8.9-2.3 3.5-3.4 5.8-2.5 2.3.9 3.4 3.5 2.5 5.8-.7 1.8-2.4 2.9-4.2 2.9-.5-.1-1.1-.2-1.6-.4zm-56.7-12.9c-.1-2.5 1.8-4.6 4.3-4.7 2.5-.1 4.6 1.8 4.7 4.3.1 2.5-1.8 4.6-4.3 4.7h-.2c-2.4 0-4.4-1.9-4.5-4.3z" fill="#efd7a3"/><circle cx="180" cy="180" r="56" fill="#dcaa27"/><path d="M230 85c2.1 0 4.2.5 6.1 1.7 5.6 3.4 7.4 10.6 4.1 16.2-2.2 3.7-6.2 5.8-10.2 5.8-1.1 0-2.2-.1-3.2-.5-1-.3-1.9-.7-2.8-1.2-5.6-3.4-7.4-10.6-4.1-16.2 2.1-3.7 6-5.8 10.1-5.8m-97.2-1.9c2.1 0 4.2.5 6.1 1.7 5.6 3.4 7.4 10.6 4.1 16.2-2.2 3.7-6.2 5.8-10.2 5.8-1.1 0-2.2-.1-3.2-.5-1-.3-1.9-.7-2.8-1.2-5.6-3.4-7.4-10.6-4.1-16.2 2.2-3.7 6.1-5.8 10.1-5.8M83 166.6h.2c6.5.1 11.7 5.5 11.6 12-.1 6.5-5.4 11.6-11.8 11.6h-.2c-1.1 0-2.1-.2-3.1-.5-5-1.4-8.7-6.1-8.6-11.6.2-6.4 5.5-11.5 11.9-11.5m193.9 3.3h.2c6.5.1 11.7 5.5 11.6 12-.1 6.5-5.4 11.6-11.9 11.6h-.2c-1.1 0-2.1-.2-3-.5-5-1.4-8.7-6.1-8.6-11.6.3-6.4 5.5-11.5 11.9-11.5m-146.8 81.4c2.1 0 4.2.5 6.1 1.7 5.6 3.4 7.4 10.6 4.1 16.2-2.2 3.7-6.2 5.8-10.2 5.8-1.1 0-2.2-.1-3.2-.5-1-.3-1.9-.7-2.8-1.2-5.6-3.4-7.4-10.6-4.1-16.2 2.1-3.7 6.1-5.8 10.1-5.8M227 253c4.2 0 8.2 2.2 10.3 6.1 3.2 5.7 1.1 12.9-4.6 16.1-1.8 1-3.8 1.5-5.7 1.5-1.1 0-2.2-.2-3.3-.5-2.9-.8-5.5-2.8-7.1-5.6-3.2-5.7-1.1-12.9 4.6-16.1 1.9-1 3.9-1.5 5.8-1.5M118.2 103.4c-.4-.8-.8-1.6-1.1-2.4-18.7 14.9-32 36.3-36.5 60.8.8-.1 1.6-.2 2.4-.2h.3c1.8 0 3.6.4 5.3 1 4.2-22 16.2-41.3 32.9-54.8-1.3-1.3-2.4-2.8-3.3-4.4zm31.4-11.3c9.5-3.3 19.8-5.1 30.4-5.1 11.8 0 23.1 2.2 33.5 6.3.4-1.7 1-3.4 2-5 .5-.8 1-1.5 1.6-2.2-11.5-4.6-24-7.1-37.1-7.1-11.8 0-23.2 2.1-33.8 5.8.6.7 1.1 1.5 1.5 2.3 1 1.5 1.5 3.2 1.9 5zm122.3 73.5c1.6-.5 3.3-.8 5-.8h.3c.9 0 1.8.1 2.7.3-3.7-24.7-16.3-46.5-34.4-62-.3.8-.7 1.6-1.2 2.4-.9 1.6-2.1 3-3.5 4.1 16.4 14.2 27.7 33.8 31.1 56zM212.3 273c-.9-1.6-1.5-3.3-1.8-5.1-9.6 3.3-19.8 5.2-30.5 5.2-11.8 0-23.1-2.2-33.5-6.2-.4 1.7-1 3.4-2 5-.5.8-1 1.5-1.6 2.2 11.5 4.5 24 7 37.1 7 11.9 0 23.2-2.1 33.8-5.8-.5-.8-1-1.5-1.5-2.3zm64.7-74.5h-.3c-1.4 0-2.9-.2-4.3-.7l-.9-.3c-4.2 22-16.2 41.3-33 54.8 1.3 1.2 2.5 2.6 3.4 4.3.4.8.8 1.6 1.1 2.4 18.7-14.9 32.1-36.3 36.6-60.7-1 .1-1.8.2-2.6.2zm-188.9-4.1c-1.6.5-3.3.8-5 .8h-.3c-.9 0-1.8-.1-2.7-.3 3.7 24.7 16.3 46.5 34.4 61.9.3-.8.7-1.6 1.2-2.4.9-1.6 2.1-3 3.5-4.2-16.3-13.9-27.7-33.5-31.1-55.8z" fill="#111422"/></svg>