<?xml version="1.0" encoding="utf-8"?>
<!-- Generator: Adobe Illustrator 22.1.0, SVG Export Plug-In . SVG Version: 6.00 Build 0)  -->
<svg version="1.1" id="Layer_1" xmlns="http://www.w3.org/2000/svg" xmlns:xlink="http://www.w3.org/1999/xlink" x="0px" y="0px"
	 viewBox="0 0 360 360" style="enable-background:new 0 0 360 360;" xml:space="preserve">
<style type="text/css">
	.st0{fill:#EFD7A3;}
	.st1{fill:#DCAA27;}
	.st2{fill:#111422;}
	.st3{fill:#FFFFFF;}
	.st4{fill:#DCAA26;}
</style>
<g>
	<g>
		<circle class="st1" cx="244.1" cy="152.6" r="25"/>
	</g>
	<g>
		<path class="st2" d="M180,247.6c-37.2,0-67.6-30.3-67.6-67.6c0-37.2,30.3-67.6,67.6-67.6s67.6,30.3,67.6,67.6
			C247.6,217.2,217.2,247.6,180,247.6z M180,120.4c-32.8,0-59.6,26.7-59.6,59.6c0,32.8,26.7,59.6,59.6,59.6s59.6-26.7,59.6-59.6
			C239.6,147.2,212.8,120.4,180,120.4z"/>
	</g>
	<g>
		<circle class="st1" cx="224.5" cy="86.3" r="17.2"/>
	</g>
	<g>
		<circle class="st1" cx="89" cy="117" r="17.2"/>
	</g>
	<g>
		<circle class="st1" cx="259" cy="250" r="17.2"/>
	</g>
	<g>
		<path class="st0" d="M270.5,204c0-2.5,2-4.5,4.5-4.5l0,0c2.5,0,4.5,2,4.5,4.5l0,0c0,2.5-2,4.5-4.5,4.5l0,0l0,0l0,0
			C272.5,208.5,270.5,206.5,270.5,204z"/>
	</g>
	<g>
		<path class="st0" d="M170.5,287.7c0-2.5,2-4.5,4.5-4.5l0,0c2.5,0,4.5,2,4.5,4.5l0,0c0,2.5-2,4.5-4.5,4.5l0,0l0,0l0,0
			C172.5,292.2,170.5,290.2,170.5,287.7z"/>
	</g>
	<g>
		<path class="st0" d="M126.9,101.2c0-2.5,2-4.5,4.5-4.5l0,0c2.5,0,4.5,2,4.5,4.5l0,0c0,2.5-2,4.5-4.5,4.5l0,0l0,0l0,0
			C128.9,105.7,126.9,103.6,126.9,101.2z"/>
	</g>
	<g>
		<path class="st0" d="M182.3,201.7c0-2.5,2-4.5,4.5-4.5l0,0c2.5,0,4.5,2,4.5,4.5l0,0c0,2.5-2,4.5-4.5,4.5l0,0
			C184.4,206.2,182.3,204.2,182.3,201.7z"/>
	</g>
	<g>
		<circle class="st1" cx="155.1" cy="160.6" r="10.3"/>
	</g>
	<g>
		<circle class="st1" cx="115.7" cy="225.7" r="45.4"/>
	</g>
</g>
</svg>
