<?xml version="1.0" encoding="utf-8"?>
<!-- Generator: Adobe Illustrator 22.1.0, SVG Export Plug-In . SVG Version: 6.00 Build 0)  -->
<svg version="1.1" id="Layer_1" xmlns="http://www.w3.org/2000/svg" xmlns:xlink="http://www.w3.org/1999/xlink" x="0px" y="0px"
	 viewBox="0 0 360 360" style="enable-background:new 0 0 360 360;" xml:space="preserve">
<style type="text/css">
	.st0{fill:#EFD7A3;}
	.st1{fill:#DCAA27;}
	.st2{fill:#111422;}
	.st3{fill:#FFFFFF;}
	.st4{fill:#DCAA26;}
</style>
<g>
	<g>
		<g>
			<path class="st1" d="M187.9,172.1c0,0-3.5-50.6,20.2-74.3c14.9-14.9,39.2-14.9,54.1,0c14.9,14.9,14.9,39.2,0,54.1
				C239.6,174.5,187.9,172.1,187.9,172.1z"/>
		</g>
		<g>
			<path class="st1" d="M172.1,187.9c0,0,3.5,50.6-20.2,74.3c-14.9,14.9-39.2,14.9-54.1,0c-14.9-14.9-14.9-39.2,0-54.1
				C120.4,185.5,172.1,187.9,172.1,187.9z"/>
		</g>
		<g>
			<path class="st2" d="M181.2,244.8c-16.3,0-32.6-6.2-45-18.6c-24.8-24.8-24.8-65.2,0-90c24.8-24.8,65.2-24.8,90,0
				c24.8,24.8,24.8,65.2,0,90l0,0C213.7,238.6,197.4,244.8,181.2,244.8z M181.2,125.5c-14.3,0-28.5,5.4-39.3,16.3
				c-21.7,21.7-21.7,57,0,78.7c21.7,21.7,57,21.7,78.7,0c21.7-21.7,21.7-57,0-78.7C209.6,131,195.4,125.5,181.2,125.5z"/>
		</g>
		<g>
			<path class="st1" d="M172.1,172.1c0,0-50.6,3.5-74.3-20.2c-14.9-14.9-14.9-39.2,0-54.1s39.2-14.9,54.1,0
				C174.5,120.4,172.1,172.1,172.1,172.1z"/>
		</g>
		<g>
			<path class="st1" d="M187.9,187.9c0,0,50.6-3.5,74.3,20.2c14.9,14.9,14.9,39.2,0,54.1c-14.9,14.9-39.2,14.9-54.1,0
				C185.5,239.6,187.9,187.9,187.9,187.9z"/>
		</g>
	</g>
	<g>
		<g>
			<g>
				<path class="st0" d="M175.2,88.6c-0.1-2.6,1.9-4.9,4.6-5l0,0l0,0l0,0c2.6-0.1,4.9,1.9,5,4.5l0,0c0.1,2.6-1.9,4.9-4.6,5l0,0
					c-0.1,0-0.1,0-0.2,0l0,0C177.5,93.2,175.3,91.2,175.2,88.6z"/>
			</g>
		</g>
		<g>
			<g>
				<path class="st0" d="M175.2,271.8c-0.1-2.6,1.9-4.9,4.6-5l0,0l0,0l0,0c2.6-0.1,4.9,1.9,5,4.5l0,0c0.1,2.6-1.9,4.9-4.6,5l0,0
					c-0.1,0-0.1,0-0.2,0l0,0C177.5,276.4,175.3,274.4,175.2,271.8z"/>
			</g>
		</g>
	</g>
	<g>
		<g>
			<g>
				<path class="st0" d="M271.4,175.2c2.6-0.1,4.9,1.9,5,4.6l0,0l0,0l0,0c0.1,2.6-1.9,4.9-4.5,5l0,0c-2.6,0.1-4.9-1.9-5-4.6l0,0
					c0-0.1,0-0.1,0-0.2l0,0C266.8,177.5,268.8,175.3,271.4,175.2z"/>
			</g>
		</g>
		<g>
			<g>
				<path class="st0" d="M88.2,175.2c2.6-0.1,4.9,1.9,5,4.6l0,0l0,0l0,0c0.1,2.6-1.9,4.9-4.5,5l0,0c-2.6,0.1-4.9-1.9-5-4.6l0,0
					c0-0.1,0-0.1,0-0.2l0,0C83.6,177.5,85.6,175.3,88.2,175.2z"/>
			</g>
		</g>
	</g>
</g>
</svg>
