<?xml version="1.0" encoding="utf-8"?>
<!-- Generator: Adobe Illustrator 22.1.0, SVG Export Plug-In . SVG Version: 6.00 Build 0)  -->
<svg version="1.1" id="Layer_1" xmlns="http://www.w3.org/2000/svg" xmlns:xlink="http://www.w3.org/1999/xlink" x="0px" y="0px"
	 viewBox="0 0 360 360" style="enable-background:new 0 0 360 360;" xml:space="preserve">
<style type="text/css">
	.st0{fill:#EFD7A3;}
	.st1{fill:#DCAA27;}
	.st2{fill:#111422;}
	.st3{fill:#FFFFFF;}
	.st4{fill:#DCAA26;}
</style>
<g>
	<g>
		<path class="st2" d="M180,259.1c-43.6,0-79.1-35.5-79.1-79.1s35.5-79.1,79.1-79.1c43.6,0,79.1,35.5,79.1,79.1
			S223.6,259.1,180,259.1z M180,108.9c-39.2,0-71.1,31.9-71.1,71.1s31.9,71.1,71.1,71.1s71.1-31.9,71.1-71.1S219.2,108.9,180,108.9z
			"/>
	</g>
	<g>
		<g>
			<g>
				<g>
					<ellipse class="st1" cx="180" cy="107.2" rx="15.3" ry="42.5"/>
				</g>
				<g>
					<ellipse class="st1" cx="180" cy="252.8" rx="15.3" ry="42.5"/>
				</g>
			</g>
			<g>
				<g>
					<ellipse class="st1" cx="252.8" cy="180" rx="42.5" ry="15.3"/>
				</g>
				<g>
					<ellipse class="st1" cx="107.2" cy="180" rx="42.5" ry="15.3"/>
				</g>
			</g>
			<g>
				<g>
					
						<ellipse transform="matrix(0.7071 -0.7071 0.7071 0.7071 -23.0629 201.3302)" class="st1" cx="231.5" cy="128.5" rx="42.5" ry="15.3"/>
				</g>
				<g>
					
						<ellipse transform="matrix(0.7071 -0.7071 0.7071 0.7071 -126.0539 158.67)" class="st1" cx="128.5" cy="231.5" rx="42.5" ry="15.3"/>
				</g>
			</g>
			<g>
				<g>
					
						<ellipse transform="matrix(0.7071 -0.7071 0.7071 0.7071 -95.8886 231.4956)" class="st1" cx="231.5" cy="231.5" rx="15.3" ry="42.5"/>
				</g>
				<g>
					
						<ellipse transform="matrix(0.7071 -0.7071 0.7071 0.7071 -53.2283 128.5046)" class="st1" cx="128.5" cy="128.5" rx="15.3" ry="42.5"/>
				</g>
			</g>
		</g>
		<ellipse transform="matrix(0.7071 -0.7071 0.7071 0.7071 -74.5584 180)" class="st2" cx="180" cy="180" rx="21" ry="21"/>
	</g>
	<g>
		<g>
			<path class="st0" d="M175.5,51.6c-0.1-2.5,1.8-4.6,4.3-4.7l0,0l0,0l0,0c2.5-0.1,4.6,1.8,4.7,4.3l0,0c0.1,2.5-1.8,4.6-4.3,4.7l0,0
				c-0.1,0-0.1,0-0.2,0l0,0C177.6,55.9,175.6,54,175.5,51.6z"/>
		</g>
		<g>
			<path class="st0" d="M175.5,308.8c-0.1-2.5,1.8-4.6,4.3-4.7l0,0l0,0l0,0c2.5-0.1,4.6,1.8,4.7,4.3l0,0c0.1,2.5-1.8,4.6-4.3,4.7
				l0,0c-0.1,0-0.1,0-0.2,0l0,0C177.6,313.1,175.6,311.3,175.5,308.8z"/>
		</g>
	</g>
	<g>
		<g>
			<path class="st0" d="M308.4,175.5c2.5-0.1,4.6,1.8,4.7,4.3l0,0l0,0l0,0c0.1,2.5-1.8,4.6-4.3,4.7l0,0c-2.5,0.1-4.6-1.8-4.7-4.3
				l0,0c0-0.1,0-0.1,0-0.2l0,0C304.1,177.6,306,175.6,308.4,175.5z"/>
		</g>
		<g>
			<path class="st0" d="M51.2,175.5c2.5-0.1,4.6,1.8,4.7,4.3l0,0l0,0l0,0c0.1,2.5-1.8,4.6-4.3,4.7l0,0c-2.5,0.1-4.6-1.8-4.7-4.3l0,0
				c0-0.1,0-0.1,0-0.2l0,0C46.9,177.6,48.7,175.6,51.2,175.5z"/>
		</g>
	</g>
	<g>
		<g>
			<path class="st0" d="M267.6,86c1.7-1.8,4.5-2,6.4-0.3l0,0l0,0l0,0c1.8,1.7,2,4.5,0.3,6.3l0,0c-1.7,1.8-4.5,2-6.4,0.3l0,0
				c0,0-0.1-0.1-0.1-0.1l0,0C266.1,90.5,266,87.8,267.6,86z"/>
		</g>
		<g>
			<path class="st0" d="M85.7,267.9c1.7-1.8,4.5-2,6.4-0.3l0,0l0,0l0,0c1.8,1.7,2,4.5,0.3,6.3l0,0c-1.7,1.8-4.5,2-6.4,0.3l0,0
				c0,0-0.1-0.1-0.1-0.1l0,0C84.2,272.5,84.1,269.7,85.7,267.9z"/>
		</g>
	</g>
	<g>
		<g>
			<path class="st0" d="M274,267.6c1.8,1.7,2,4.5,0.3,6.4l0,0l0,0l0,0c-1.7,1.8-4.5,2-6.3,0.3l0,0c-1.8-1.7-2-4.5-0.3-6.4l0,0
				c0,0,0.1-0.1,0.1-0.1l0,0C269.5,266.1,272.2,266,274,267.6z"/>
		</g>
		<g>
			<path class="st0" d="M92.1,85.7c1.8,1.7,2,4.5,0.3,6.4l0,0l0,0l0,0c-1.7,1.8-4.5,2-6.3,0.3l0,0c-1.8-1.7-2-4.5-0.3-6.4l0,0
				c0,0,0.1-0.1,0.1-0.1l0,0C87.5,84.2,90.3,84.1,92.1,85.7z"/>
		</g>
	</g>
</g>
</svg>
