<?xml version="1.0" encoding="utf-8"?>
<!-- Generator: Adobe Illustrator 22.1.0, SVG Export Plug-In . SVG Version: 6.00 Build 0)  -->
<svg version="1.1" id="Layer_1" xmlns="http://www.w3.org/2000/svg" xmlns:xlink="http://www.w3.org/1999/xlink" x="0px" y="0px"
	 viewBox="0 0 360 360" style="enable-background:new 0 0 360 360;" xml:space="preserve">
<style type="text/css">
	.st0{fill:#EFD7A3;}
	.st1{fill:#DCAA27;}
	.st2{fill:#111422;}
	.st3{fill:#FFFFFF;}
	.st4{fill:#DCAA26;}
</style>
<g>
	<path class="st0" d="M163.2,313.1c-2.5-0.3-4.2-2.5-3.9-5l0,0c0.3-2.5,2.5-4.2,5-3.9l0,0c2.5,0.3,4.2,2.5,3.9,5l0,0
		c-0.3,2.3-2.2,3.9-4.5,3.9l0,0C163.6,313.1,163.4,313.1,163.2,313.1z M213.8,305.3c-0.7-2.4,0.6-4.9,3-5.6l0,0
		c2.4-0.7,4.9,0.6,5.6,3l0,0c0.7,2.4-0.6,4.9-3,5.6l0,0c0,0,0,0,0,0l0,0c-0.4,0.1-0.9,0.2-1.3,0.2l0,0
		C216.2,308.4,214.4,307.2,213.8,305.3z M109.9,294.4c-2.1-1.3-2.8-4.1-1.5-6.2l0,0c1.3-2.1,4.1-2.8,6.2-1.5v0
		c2.1,1.3,2.8,4.1,1.5,6.2l0,0c-0.8,1.4-2.3,2.2-3.8,2.2l0,0C111.4,295,110.6,294.8,109.9,294.4z M262.3,280.2
		c-1.6-1.9-1.5-4.7,0.4-6.3l0,0c1.9-1.7,4.7-1.5,6.3,0.4l0,0c1.7,1.9,1.5,4.7-0.4,6.4l0,0c-0.9,0.8-1.9,1.1-3,1.1l0,0
		C264.5,281.7,263.2,281.2,262.3,280.2z M69,255.4c-1.4-2-0.9-4.8,1.2-6.2l0,0c2.1-1.4,4.8-0.9,6.2,1.2h0c1.4,2,0.9,4.8-1.2,6.2l0,0
		c-0.8,0.5-1.7,0.8-2.5,0.8l0,0C71.3,257.4,69.9,256.7,69,255.4z M296.3,237.5c-2.3-1-3.3-3.7-2.2-6l0,0c1-2.3,3.7-3.3,6-2.2l0,0
		c2.3,1,3.3,3.7,2.2,6l0,0c-0.8,1.7-2.4,2.6-4.1,2.6l0,0C297.6,237.9,296.9,237.7,296.3,237.5z M47.8,203L47.8,203L47.8,203
		c-0.4-2.5,1.2-4.8,3.7-5.2l0,0c2.4-0.4,4.8,1.2,5.2,3.7l0,0c0.4,2.5-1.2,4.8-3.7,5.2l0,0c-0.3,0-0.5,0.1-0.8,0.1l0,0
		C50.1,206.8,48.2,205.2,47.8,203z M305.1,180L305.1,180c0-2.5,2-4.5,4.5-4.5l0,0c2.5,0,4.5,2,4.5,4.5l0,0c0,2.5-2,4.5-4.5,4.5l0,0
		C307.1,184.5,305.1,182.5,305.1,180z M53.3,152.1c-2.4-0.6-3.8-3.1-3.2-5.5l0,0c0.6-2.4,3.1-3.9,5.5-3.2l0,0
		c2.4,0.6,3.9,3.1,3.2,5.5l0,0c-0.5,2-2.4,3.4-4.4,3.4l0,0C54.1,152.2,53.7,152.2,53.3,152.1z M297.8,137.6L297.8,137.6
		c-0.8-2.3,0.4-4.9,2.7-5.8l0,0c2.3-0.8,4.9,0.4,5.8,2.7l0,0l0,0l0,0c0.8,2.3-0.4,4.9-2.7,5.8l0,0c-0.5,0.2-1,0.3-1.5,0.3l0,0
		C300.2,140.6,298.4,139.5,297.8,137.6z M76,102.4c-1.9-1.5-2.2-4.4-0.7-6.3l0,0l0,0l0,0c1.6-1.9,4.4-2.2,6.3-0.7l0,0
		c1.9,1.6,2.2,4.4,0.7,6.3l0,0c-0.9,1.1-2.2,1.7-3.5,1.7l0,0C77.8,103.4,76.9,103.1,76,102.4z M269.9,92.9L269.9,92.9
		c-1.7-1.8-1.7-4.6,0.1-6.4l0,0c1.8-1.7,4.6-1.7,6.4,0.1l0,0l0,0l0,0c1.7,1.8,1.7,4.6-0.1,6.4l0,0c-0.9,0.9-2,1.3-3.1,1.3l0,0
		C271.9,94.3,270.8,93.8,269.9,92.9z M117.1,66.5c-1.1-2.2-0.2-4.9,2-6.1l0,0c2.2-1.1,4.9-0.2,6,2l0,0c1.1,2.2,0.2,4.9-2,6.1l0,0
		c-0.7,0.3-1.4,0.5-2,0.5l0,0C119.5,69,117.9,68.1,117.1,66.5z M226.1,63.6c-2.3-0.9-3.4-3.5-2.5-5.8l0,0c0.9-2.3,3.5-3.4,5.8-2.5
		l0,0c2.3,0.9,3.4,3.5,2.5,5.8l0,0c-0.7,1.8-2.4,2.9-4.2,2.9l0,0C227.2,63.9,226.6,63.8,226.1,63.6z M169.4,50.7
		c-0.1-2.5,1.8-4.6,4.3-4.7l0,0l0,0l0,0c2.5-0.1,4.6,1.8,4.7,4.3l0,0c0.1,2.5-1.8,4.6-4.3,4.7l0,0c-0.1,0-0.1,0-0.2,0l0,0
		C171.5,55,169.5,53.1,169.4,50.7z"/>
</g>
<g>
	<circle class="st1" cx="180" cy="180" r="56"/>
</g>
<path class="st2" d="M230,85c2.1,0,4.2,0.5,6.1,1.7c5.6,3.4,7.4,10.6,4.1,16.2c-2.2,3.7-6.2,5.8-10.2,5.8c-1.1,0-2.2-0.1-3.2-0.5
	c-1-0.3-1.9-0.7-2.8-1.2c-5.6-3.4-7.4-10.6-4.1-16.2C222,87.1,225.9,85,230,85"/>
<path class="st2" d="M132.8,83.1c2.1,0,4.2,0.5,6.1,1.7c5.6,3.4,7.4,10.6,4.1,16.2c-2.2,3.7-6.2,5.8-10.2,5.8
	c-1.1,0-2.2-0.1-3.2-0.5c-1-0.3-1.9-0.7-2.8-1.2c-5.6-3.4-7.4-10.6-4.1-16.2C124.9,85.2,128.8,83.1,132.8,83.1"/>
<path class="st2" d="M83,166.6c0.1,0,0.2,0,0.2,0c6.5,0.1,11.7,5.5,11.6,12c-0.1,6.5-5.4,11.6-11.8,11.6c-0.1,0-0.1,0-0.2,0
	c-1.1,0-2.1-0.2-3.1-0.5c-5-1.4-8.7-6.1-8.6-11.6C71.3,171.7,76.6,166.6,83,166.6"/>
<path class="st2" d="M276.9,169.9c0.1,0,0.2,0,0.2,0c6.5,0.1,11.7,5.5,11.6,12c-0.1,6.5-5.4,11.6-11.9,11.6c-0.1,0-0.1,0-0.2,0
	c-1.1,0-2.1-0.2-3-0.5c-5-1.4-8.7-6.1-8.6-11.6l0,0C265.3,175,270.5,169.9,276.9,169.9"/>
<path class="st2" d="M130.1,251.3c2.1,0,4.2,0.5,6.1,1.7c5.6,3.4,7.4,10.6,4.1,16.2c-2.2,3.7-6.2,5.8-10.2,5.8
	c-1.1,0-2.2-0.1-3.2-0.5c-1-0.3-1.9-0.7-2.8-1.2c-5.6-3.4-7.4-10.6-4.1-16.2C122.1,253.4,126.1,251.3,130.1,251.3"/>
<path class="st2" d="M227,253c4.2,0,8.2,2.2,10.3,6.1c3.2,5.7,1.1,12.9-4.6,16.1c-1.8,1-3.8,1.5-5.7,1.5c-1.1,0-2.2-0.2-3.3-0.5
	c-2.9-0.8-5.5-2.8-7.1-5.6c-3.2-5.7-1.1-12.9,4.6-16.1C223.1,253.5,225.1,253,227,253"/>
<path class="st2" d="M118.2,103.4c-0.4-0.8-0.8-1.6-1.1-2.4c-18.7,14.9-32,36.3-36.5,60.8c0.8-0.1,1.6-0.2,2.4-0.2h0
	c0.1,0,0.2,0,0.3,0c1.8,0,3.6,0.4,5.3,1c4.2-22,16.2-41.3,32.9-54.8C120.2,106.5,119.1,105,118.2,103.4z"/>
<path class="st2" d="M149.6,92.1c9.5-3.3,19.8-5.1,30.4-5.1c11.8,0,23.1,2.2,33.5,6.3c0.4-1.7,1-3.4,2-5c0.5-0.8,1-1.5,1.6-2.2
	c-11.5-4.6-24-7.1-37.1-7.1c-11.8,0-23.2,2.1-33.8,5.8c0.6,0.7,1.1,1.5,1.5,2.3C148.7,88.6,149.2,90.3,149.6,92.1z"/>
<path class="st2" d="M271.9,165.6c1.6-0.5,3.3-0.8,5-0.8h0h0c0.1,0,0.2,0,0.3,0c0.9,0,1.8,0.1,2.7,0.3c-3.7-24.7-16.3-46.5-34.4-62
	c-0.3,0.8-0.7,1.6-1.2,2.4c-0.9,1.6-2.1,3-3.5,4.1C257.2,123.8,268.5,143.4,271.9,165.6z"/>
<g>
	<path class="st2" d="M212.3,273c-0.9-1.6-1.5-3.3-1.8-5.1c-9.6,3.3-19.8,5.2-30.5,5.2c-11.8,0-23.1-2.2-33.5-6.2
		c-0.4,1.7-1,3.4-2,5c-0.5,0.8-1,1.5-1.6,2.2c11.5,4.5,24,7,37.1,7c11.9,0,23.2-2.1,33.8-5.8C213.3,274.5,212.8,273.8,212.3,273z"/>
	<path class="st2" d="M277,198.5l-0.3,0c-1.4,0-2.9-0.2-4.3-0.7c-0.3-0.1-0.6-0.2-0.9-0.3c-4.2,22-16.2,41.3-33,54.8
		c1.3,1.2,2.5,2.6,3.4,4.3c0.4,0.8,0.8,1.6,1.1,2.4c18.7-14.9,32.1-36.3,36.6-60.7C278.6,198.4,277.8,198.5,277,198.5z"/>
</g>
<path class="st2" d="M88.1,194.4c-1.6,0.5-3.3,0.8-5,0.8c-0.1,0-0.2,0-0.3,0c-0.9,0-1.8-0.1-2.7-0.3c3.7,24.7,16.3,46.5,34.4,61.9
	c0.3-0.8,0.7-1.6,1.2-2.4c0.9-1.6,2.1-3,3.5-4.2C102.9,236.3,91.5,216.7,88.1,194.4z"/>
</svg>
